PathFileType	4	(X/Y/Z)	C:\Users\WrightLab\Desktop\Jo\P4V130.trc
DataRate	CameraRate	NumFrames	NumMarkers	Units	OrigDataRate	OrigDataStartFrame	OrigNumFrames
100.00	100.00	       84	19	mm	100.00	1	       672
Frame#	Time	Headset_Front			Headset_Back			Headset_Left			Headset_Right			Left_Shoulder			Right_Shoulder			Sternum			C7			Left Elbow			Right Elbow			Left Wrist			Right Wrist			Left ASIS			Right ASIS			S2			Left Knee			Right Knee			Left Ankle			Right Ankle			
		X1	Y1	Z1	X2	Y2	Z2	X3	Y3	Z3	X4	Y4	Z4	X5	Y5	Z5	X6	Y6	Z6	X7	Y7	Z7	X8	Y8	Z8	X9	Y9	Z9	X10	Y10	Z10	X11	Y11	Z11	X12	Y12	Z12	X13	Y13	Z13	X14	Y14	Z14	X15	Y15	Z15	X16	Y16	Z16	X17	Y17	Z17	X18	Y18	Z18	X19	Y19	Z19	

1	0.000																															199.97144	960.67542	-1689.44019																									
2	0.010																															205.02255	964.26398	-1676.86731																									
3	0.020																															210.29015	967.52521	-1664.16919																									
4	0.030																															214.14523	970.92395	-1652.27588																									
5	0.040																															217.81412	973.44983	-1638.94592																									
6	0.050																															220.80432	976.08899	-1626.02856																									
7	0.060																															224.06201	977.11377	-1610.77551																									
8	0.070																															225.15370	979.77948	-1598.52979																									
9	0.080																															222.52298	978.22510	-1587.31982																									
10	0.090																															223.54976	976.53992	-1579.02234																									
11	0.100																															224.00078	979.27271	-1563.52136																									
12	0.110																															221.95834	979.29510	-1552.55603																									
13	0.120																															221.59026	978.90356	-1536.69128																									
14	0.130																															219.97316	977.74463	-1524.88403																									
15	0.140																															216.17923	978.54431	-1512.40796																									
16	0.150																															212.56412	975.89508	-1500.83533																									
17	0.160																															208.75824	975.82678	-1488.32092																									
18	0.170																															203.68324	973.74146	-1474.01306																									
19	0.180																															198.99835	972.83765	-1462.56555																									
20	0.190																															194.04800	969.39227	-1450.68054																									
21	0.200																															187.38290	970.06287	-1433.72620																									
22	0.210																															181.30115	966.86334	-1422.50769																									
23	0.220																															173.30566	963.84912	-1416.11877																									
24	0.230																															166.37843	962.94708	-1401.62427																									
25	0.240																															156.85335	959.06012	-1393.07776																									
26	0.250																															148.61554	958.81470	-1379.12146																									
27	0.260																															139.94441	953.98212	-1376.73450													41.27770	532.24146	-1459.30164										
28	0.270																															130.71585	952.68964	-1362.87500													40.82919	529.79285	-1461.33960										
29	0.280																															121.44012	950.64148	-1354.25061													39.99175	528.92212	-1461.36072										
30	0.290																															108.87257	947.16876	-1344.96985													39.77180	527.44672	-1460.95740										
31	0.300																															99.60300	946.38849	-1337.37280													38.93135	526.32990	-1458.71350										
32	0.310																															91.18541	945.17487	-1330.28271													39.43678	525.15015	-1459.81982										
33	0.320																															81.16899	943.44318	-1324.09619													39.48736	524.90106	-1459.31799										
34	0.330																															71.07396	941.28729	-1317.68542													39.55832	524.71539	-1458.63184										
35	0.340																															61.27688	940.72296	-1314.77405													39.73751	524.84357	-1456.97510										
36	0.350																															54.18478	939.42987	-1308.97705													39.37848	525.33899	-1452.59143										
37	0.360																															40.55349	938.26520	-1307.51660													40.43484	524.76782	-1450.02454										
38	0.370																															31.86624	936.31354	-1307.34448													41.05373	524.13660	-1448.07715										
39	0.380																															21.51800	936.84985	-1302.51221													42.14938	523.57300	-1447.90662										
40	0.390																															13.19438	937.22675	-1296.62427													44.09707	522.16870	-1451.25464										
41	0.400																															5.54106	938.17310	-1293.94141													45.62656	519.79376	-1453.15613										
42	0.410																															-2.88746	938.55219	-1292.28149													45.78847	520.05402	-1451.67200										
43	0.420																															-9.87233	939.50439	-1290.26086													46.62266	520.30792	-1451.72168										
44	0.430																															-17.50461	941.56598	-1288.74353													47.84253	519.09546	-1452.74841										
45	0.440																															-23.99992	943.44214	-1287.36597													50.58245	516.54364	-1458.46313										
46	0.450																															-29.64996	946.57294	-1286.49780													50.69347	516.90564	-1457.46008										
47	0.460																															-35.19875	948.90460	-1285.27966													51.40036	516.97900	-1458.69788										
48	0.470																															-39.42344	952.45801	-1283.96851													51.47361	517.29565	-1458.04468										
49	0.480																															-44.62447	956.34039	-1283.53687													52.24447	517.68707	-1458.71765										
50	0.490																															-47.65319	959.03583	-1282.59070													52.37093	518.19177	-1457.58337										
51	0.500																															-50.01069	963.58459	-1282.04871													55.31084	516.12659	-1465.48792										
52	0.510																															-51.96798	966.30457	-1282.46045													56.23666	515.77441	-1465.32056										
53	0.520																															-54.92099	971.13287	-1282.44824													58.04375	515.52917	-1467.86853										
54	0.530																															-54.88640	973.84943	-1282.85950													58.50618	516.64569	-1466.85864										
55	0.540																															-55.23288	977.59222	-1283.75684													59.44707	516.67590	-1467.94934										
56	0.550																															-54.97979	980.77826	-1283.68030													61.34025	515.29724	-1471.97864										
57	0.560																															-54.65637	984.27380	-1283.37012													62.50034	515.17084	-1474.96899										
58	0.570																															-52.84530	986.39130	-1283.80566													62.54781	515.38788	-1474.54004										
59	0.580																															-52.01854	989.92004	-1284.86572													63.17745	515.21405	-1476.52490										
60	0.590																															-48.81586	990.86176	-1284.55164													63.70682	514.37378	-1477.51160										
61	0.600																															-46.25450	991.59070	-1285.33923													64.26024	514.33710	-1479.23645										
62	0.610																															-44.18978	993.58105	-1286.60815													64.88976	513.63269	-1480.93042										
63	0.620																															-40.59120	993.91278	-1287.08887													65.66910	513.09155	-1483.19495										
64	0.630																															-36.34227	993.67236	-1288.10205													66.46807	512.65637	-1485.28906										
65	0.640																															-33.22779	992.78558	-1289.71887													67.70661	512.06360	-1488.21753										
66	0.650																															-27.80859	991.61993	-1289.81311													68.31020	511.51935	-1488.53430										
67	0.660																															-23.17755	990.44904	-1291.38696													68.44225	512.01727	-1487.31189										
68	0.670																															-17.65926	987.15326	-1292.11182													69.21633	512.18488	-1487.97217										
69	0.680																															-11.86623	984.44629	-1293.93518													69.38952	512.64117	-1486.34412										
70	0.690																															-5.66226	980.67920	-1301.27148													69.65782	513.31049	-1483.81714										
71	0.700																															0.83027	977.12451	-1301.16943													69.87068	513.84235	-1481.81213										
72	0.710																															5.97278	971.54956	-1305.52625													70.07513	514.31628	-1479.88135										
73	0.720																															12.95557	968.91754	-1303.81628													70.62204	513.61206	-1479.69446										
74	0.730																															20.51904	963.59943	-1304.44751													71.29005	512.84668	-1481.02136										
75	0.740																															28.19771	956.90149	-1310.37659													72.12885	512.26270	-1482.71912										
76	0.750																															34.72908	952.74158	-1311.51099													72.24103	512.51147	-1481.65442										
77	0.760																															43.68793	944.48358	-1315.81287													72.68652	511.69492	-1481.77258										
78	0.770																															51.68350	939.90826	-1314.16943													74.25832	510.59497	-1484.88416										
79	0.780																															61.48738	933.84473	-1317.83972													74.36447	510.86069	-1483.87720										
80	0.790																															68.60189	927.27069	-1320.24817													74.42830	510.96045	-1483.26416										
81	0.800																															78.56857	918.00928	-1328.82422													74.52333	511.17972	-1482.36011										
82	0.810																															87.41772	912.69360	-1332.61902													74.65425	511.45895	-1481.11157										
83	0.820																															95.86032	905.78278	-1336.27124													75.48431	510.30957	-1480.59473										
84	0.830																															105.96013	899.77606	-1338.30566													75.67741	510.78217	-1478.75964										
